<svg width="25" height="25" viewBox="0 0 25 25" fill="none" xmlns="http://www.w3.org/2000/svg">
<path d="M17.647 20.5882H19.1176V22.0588H17.647V20.5882Z" fill="#495A75"/>
<path d="M5.88232 20.5882H7.35291V22.0588H5.88232V20.5882Z" fill="#495A75"/>
<path d="M22.7941 0C21.5777 0 20.5882 0.989559 20.5882 2.20588V7.46289C19.2246 6.90005 17.551 7.14431 16.3937 8.30172L12.8415 11.8539C12.716 11.9795 12.6025 12.1188 12.5 12.2677C12.3975 12.1188 12.284 11.9794 12.1585 11.8539L8.60632 8.30172C7.47431 7.16975 5.80735 6.89078 4.41176 7.46515V2.20588C4.41176 0.989559 3.42221 0 2.20588 0C0.989559 0 0 0.989559 0 2.20588V10.3669C0 11.4486 0.395784 12.4895 1.11436 13.2979L4.98025 17.6471H2.94118V25H22.0588V17.6471H20.0197L23.8856 13.2979C24.6043 12.4895 25 11.4486 25 10.3669V2.20588C25 0.989559 24.0104 0 22.7941 0V0ZM2.21348 12.3209C1.73441 11.782 1.47059 11.088 1.47059 10.3669V2.20588C1.47059 1.80044 1.80044 1.47059 2.20588 1.47059C2.61132 1.47059 2.94118 1.80044 2.94118 2.20588C2.94118 2.27426 2.94113 1.38882 2.94186 9.32245L8.30358 14.4905L9.34343 13.4507L4.79804 8.90529C5.69299 8.44848 6.81848 8.59368 7.56642 9.34157L11.1186 12.8938C11.487 13.2621 11.7647 14.0412 11.7647 14.7059V17.6471H6.94784L2.21348 12.3209ZM11.7647 23.5294H4.41176V19.1176H11.7647V23.5294ZM20.5882 23.5294H13.2353V19.1176H20.5882V23.5294ZM23.5294 10.3669C23.5294 11.088 23.2655 11.782 22.7865 12.3209L18.0522 17.6471H13.2353V14.7059C13.2353 14.0412 13.513 13.2621 13.8814 12.8938L17.4336 9.34157C18.1967 8.57843 19.3247 8.45461 20.2024 8.9048L15.6566 13.4506L16.6964 14.4905L22.0588 9.31221V2.20588C22.0588 1.80044 22.3886 1.47059 22.7941 1.47059C23.1996 1.47059 23.5294 1.80044 23.5294 2.20588V10.3669Z" fill="#495A75"/>
</svg>
