<svg width="25" height="25" viewBox="0 0 25 25" fill="none" xmlns="http://www.w3.org/2000/svg">
<g clip-path="url(#clip0)">
<path d="M22.7904 23.8899C22.257 23.5007 21.8478 23.2073 21.4444 22.9031C20.1534 21.938 18.8807 20.9421 17.5639 20.0128C17.2105 19.7636 16.7238 19.5895 16.297 19.5845C13.4908 19.5469 10.683 19.5761 7.87593 19.5536C7.39253 19.5503 6.9108 19.4053 6.4274 19.3278C6.4224 19.2528 6.41657 19.1786 6.41156 19.1027C7.11249 18.5702 7.80425 18.0235 8.52268 17.5159C8.67437 17.4092 8.9219 17.4117 9.12693 17.4109C11.8398 17.4034 14.5535 17.3951 17.2663 17.4226C17.5856 17.4259 17.9423 17.5793 18.2123 17.7643C18.9941 18.3027 19.7425 18.891 20.6293 19.5528C20.6293 18.766 20.6293 18.1285 20.6293 17.4109C21.3736 17.4109 22.0378 17.4109 22.7412 17.4109C22.7412 14.1147 22.7412 10.9027 22.7412 7.61825C21.7669 7.61825 20.836 7.59492 19.91 7.64576C19.78 7.65326 19.5717 8.02496 19.5667 8.23082C19.5375 9.75013 19.5575 11.2711 19.5491 12.7921C19.5375 14.3931 18.7299 15.2057 17.1255 15.2082C14.3201 15.2165 11.5122 15.1907 8.70437 15.2273C8.27681 15.234 7.78675 15.4032 7.43754 15.6541C5.85816 16.7825 4.32045 17.9643 2.76525 19.1277C2.60606 19.2469 2.43353 19.3478 2.15183 19.5328C2.15183 18.2452 2.13766 17.085 2.15933 15.9291C2.16767 15.4849 2.12016 15.2298 1.57759 15.1215C0.645796 14.9348 0.0190462 14.0997 0.0140456 13.128C-0.00345676 9.82931 -0.00679054 6.53148 0.0115452 3.23365C0.0165459 2.04103 0.906664 1.12677 2.09516 1.12177C7.21834 1.1051 12.3407 1.10594 17.463 1.12511C18.619 1.13011 19.4825 2.02436 19.5383 3.17864C19.5625 3.69203 19.5792 4.20958 19.5416 4.72213C19.4991 5.28135 19.6517 5.52305 20.2726 5.47804C21.0869 5.42053 21.9095 5.45554 22.7254 5.46887C24.0539 5.48971 24.9649 6.31562 24.9765 7.64326C25.0107 10.8936 25.0024 14.1456 24.9765 17.3967C24.9665 18.5052 24.334 19.2669 23.2713 19.5078C22.8846 19.5945 22.7804 19.7503 22.7862 20.1137C22.8021 21.0963 22.7904 22.078 22.7887 23.0598C22.7904 23.284 22.7904 23.5082 22.7904 23.8899ZM17.2772 13.0655C17.333 12.9088 17.3639 12.8654 17.3639 12.8221C17.3722 9.80847 17.3689 6.79651 17.388 3.7812C17.3914 3.29366 17.1255 3.27365 16.7629 3.27365C12.1115 3.27949 7.4617 3.28532 2.81108 3.26782C2.28601 3.26615 2.1385 3.43117 2.1435 3.94955C2.16767 6.77734 2.15516 9.60429 2.16016 12.4321C2.16016 12.6304 2.19434 12.8296 2.21851 13.0896C2.95527 13.0896 3.62286 13.0896 4.37879 13.0896C4.37879 13.788 4.37879 14.4214 4.37879 15.194C5.26891 14.5256 6.01568 13.9314 6.80078 13.3972C7.06832 13.2113 7.43003 13.0863 7.75341 13.0771C9.03775 13.0421 10.3229 13.0638 11.6089 13.0655C13.4958 13.0655 15.3869 13.0655 17.2772 13.0655Z" fill="#6776ED"/>
<path d="M6.215 9.46343C6.87691 9.46343 7.4135 8.92687 7.4135 8.26498C7.4135 7.60309 6.87691 7.06653 6.215 7.06653C5.55309 7.06653 5.01651 7.60309 5.01651 8.26498C5.01651 8.92687 5.55309 9.46343 6.215 9.46343Z" fill="#6776ED"/>
<path d="M10.2781 9.46343C10.94 9.46343 11.4765 8.92687 11.4765 8.26498C11.4765 7.60309 10.94 7.06653 10.2781 7.06653C9.61614 7.06653 9.07956 7.60309 9.07956 8.26498C9.07956 8.92687 9.61614 9.46343 10.2781 9.46343Z" fill="#6776ED"/>
<path d="M14.3411 9.46343C15.003 9.46343 15.5396 8.92687 15.5396 8.26498C15.5396 7.60309 15.003 7.06653 14.3411 7.06653C13.6792 7.06653 13.1426 7.60309 13.1426 8.26498C13.1426 8.92687 13.6792 9.46343 14.3411 9.46343Z" fill="#6776ED"/>
</g>
<defs>
<clipPath id="clip0">
<rect width="25" height="25" fill="white"/>
</clipPath>
</defs>
</svg>
