<svg width="25" height="25" viewBox="0 0 25 25" fill="none" xmlns="http://www.w3.org/2000/svg">
<path d="M24.1515 18.9214L22.2656 16.1398V12.5977C22.2654 12.3646 22.1727 12.1412 22.0079 11.9765C21.8432 11.8117 21.6198 11.719 21.3867 11.7188H17.5782V12.5H21.3867C21.4126 12.5 21.4375 12.5103 21.4558 12.5286C21.4741 12.5469 21.4844 12.5718 21.4844 12.5977V16.2598C21.4844 16.3379 21.5078 16.4143 21.5517 16.479L23.0914 18.75H21.875C21.7714 18.75 21.6721 18.7912 21.5988 18.8644C21.5256 18.9377 21.4844 19.037 21.4844 19.1406V20.9961C21.4844 21.022 21.4741 21.0468 21.4558 21.0651C21.4375 21.0835 21.4126 21.0938 21.3867 21.0938H19.9219V21.875H21.3867C21.6198 21.8747 21.8432 21.782 22.0079 21.6173C22.1727 21.4525 22.2654 21.2291 22.2656 20.9961V19.5312H23.8281C23.8991 19.5313 23.9687 19.5119 24.0295 19.4753C24.0903 19.4388 24.14 19.3863 24.1733 19.3236C24.2065 19.2609 24.222 19.1904 24.2182 19.1195C24.2144 19.0486 24.1913 18.9802 24.1515 18.9214V18.9214Z" fill="#6776ED"/>
<path d="M8.98441 20.9961V14.0625H8.20316V20.9961C8.20343 21.2291 8.29611 21.4525 8.46088 21.6173C8.62565 21.782 8.84904 21.8747 9.08206 21.875H19.1407V21.0938H9.08206C9.05616 21.0938 9.03132 21.0835 9.01301 21.0651C8.99469 21.0468 8.98441 21.022 8.98441 20.9961Z" fill="#6776ED"/>
<path d="M20.7032 14.4531V13.6719C20.7032 13.5683 20.662 13.4689 20.5887 13.3957C20.5155 13.3224 20.4161 13.2812 20.3125 13.2812H19.5313V14.0625H19.9219V14.4531H20.7032Z" fill="#6776ED"/>
<path d="M9.76566 19.1406V19.9219C9.76566 20.0255 9.80681 20.1248 9.88007 20.1981C9.95332 20.2713 10.0527 20.3125 10.1563 20.3125H10.9375V19.5312H10.5469V19.1406H9.76566Z" fill="#6776ED"/>
<path d="M15.625 14.0625H14.8438C14.7603 14.0625 14.6789 14.0893 14.6117 14.1389C14.5445 14.1885 14.495 14.2584 14.4705 14.3382L12.908 19.4164L13.6546 19.6461L14.1708 17.9688H16.2981L16.8142 19.6461L17.5609 19.4164L15.9984 14.3382C15.9738 14.2584 15.9243 14.1885 15.8571 14.1389C15.7899 14.0893 15.7086 14.0625 15.625 14.0625V14.0625ZM14.4111 17.1875L15.1323 14.8438H15.3366L16.0577 17.1875H14.4111Z" fill="#6776ED"/>
<path d="M16.7969 12.4023V4.00391C16.7966 3.77089 16.704 3.54749 16.5392 3.38273C16.3744 3.21796 16.151 3.12527 15.918 3.125H6.25004V3.90625H15.918C15.9439 3.90625 15.9687 3.91654 15.9871 3.93485C16.0054 3.95317 16.0157 3.97801 16.0157 4.00391V12.4023C16.0157 12.4282 16.0054 12.4531 15.9871 12.4714C15.9687 12.4897 15.9439 12.5 15.918 12.5H3.61332C3.58742 12.5 3.56258 12.4897 3.54427 12.4714C3.52595 12.4531 3.51566 12.4282 3.51566 12.4023V8.74023C3.51566 8.66209 3.49223 8.58573 3.44838 8.52104L1.90868 6.25H3.12504C3.22864 6.25 3.32799 6.20884 3.40125 6.13559C3.47451 6.06233 3.51566 5.96298 3.51566 5.85938V4.00391C3.51566 3.97801 3.52595 3.95317 3.54427 3.93485C3.56258 3.91654 3.58742 3.90625 3.61332 3.90625H5.46879V3.125H3.61332C3.3803 3.12527 3.15691 3.21796 2.99214 3.38273C2.82737 3.54749 2.73468 3.77089 2.73441 4.00391V5.46875H1.17191C1.10095 5.46875 1.03133 5.48808 0.970528 5.52466C0.909724 5.56124 0.860034 5.61369 0.826792 5.67639C0.793551 5.73908 0.778015 5.80964 0.781852 5.8805C0.78569 5.95136 0.808756 6.01983 0.848573 6.07856L2.73441 8.86016V12.4023C2.73468 12.6354 2.82737 12.8588 2.99214 13.0235C3.15691 13.1883 3.3803 13.281 3.61332 13.2812H15.918C16.151 13.281 16.3744 13.1883 16.5392 13.0235C16.704 12.8588 16.7966 12.6354 16.7969 12.4023V12.4023Z" fill="#6776ED"/>
<path d="M4.29688 5.07812V5.85938H5.07812V5.46875H5.46875V4.6875H4.6875C4.5839 4.6875 4.48454 4.72866 4.41129 4.80191C4.33803 4.87517 4.29688 4.97452 4.29688 5.07812Z" fill="#6776ED"/>
<path d="M15.2344 11.3281V10.5469H14.4532V10.9375H14.0625V11.7188H14.8438C14.9474 11.7188 15.0467 11.6776 15.12 11.6043C15.1933 11.5311 15.2344 11.4317 15.2344 11.3281Z" fill="#6776ED"/>
<path d="M11.3282 6.83594C11.3277 6.47346 11.1836 6.12595 10.9273 5.86965C10.671 5.61334 10.3234 5.46916 9.96097 5.46875H8.78909C8.42662 5.46916 8.07911 5.61334 7.8228 5.86965C7.56649 6.12595 7.42232 6.47346 7.42191 6.83594V9.57031C7.42232 9.93279 7.56649 10.2803 7.8228 10.5366C8.07911 10.7929 8.42662 10.9371 8.78909 10.9375H9.96097C10.1503 10.9376 10.3376 10.8982 10.5109 10.822C10.6842 10.7457 10.8398 10.6342 10.9676 10.4945L11.8594 11.2376L12.3595 10.6374L11.3141 9.76631C11.3235 9.7014 11.3282 9.6359 11.3282 9.57031V6.83594ZM10.0157 8.68428L9.51561 9.28447L10.3662 9.99321C10.2573 10.098 10.1121 10.1564 9.96097 10.1562H8.78909C8.63374 10.1561 8.48481 10.0943 8.37496 9.98445C8.26511 9.8746 8.20332 9.72566 8.20316 9.57031V6.83594C8.20332 6.68059 8.26511 6.53165 8.37496 6.4218C8.48481 6.31195 8.63374 6.25017 8.78909 6.25H9.96097C10.1163 6.25017 10.2653 6.31195 10.3751 6.4218C10.485 6.53165 10.5467 6.68059 10.5469 6.83594V9.12695L10.0157 8.68428Z" fill="#6776ED"/>
</svg>
