<svg width="25" height="25" viewBox="0 0 25 25" fill="none" xmlns="http://www.w3.org/2000/svg">
<path d="M17.1569 20.5883H18.6274V22.0588H17.1569V20.5883Z" fill="#6776ED"/>
<path d="M22.0099 17.2671L18.1741 15.4968C18.7901 14.362 19.1176 13.085 19.1176 11.7577V5.94333C19.1176 3.46784 17.5467 1.26853 15.2086 0.47049C14.4226 0.202304 13.2582 0 12.5 0C11.7418 0 10.5774 0.202304 9.79137 0.470539C7.45328 1.26853 5.88235 3.46784 5.88235 5.94333V11.7577C5.88235 13.085 6.20985 14.362 6.82593 15.4967L2.99015 17.2671C1.17368 18.1055 0 19.9398 0 21.9404V25H25V21.9404C25 19.9398 23.8263 18.1055 22.0099 17.2671V17.2671ZM12.5 18.3408C11.2731 17.9046 10.1428 17.1912 9.22226 16.2706C8.2925 15.3409 7.68529 14.1747 7.45608 12.9077L9.03892 14.4905C9.99877 15.4505 11.4429 15.5517 12.5 14.9017C13.5573 15.5519 15.0014 15.4503 15.9611 14.4905L17.5439 12.9077C17.3147 14.1747 16.7075 15.3409 15.7777 16.2706C14.8571 17.1912 13.7268 17.9046 12.5 18.3408V18.3408ZM17.6471 7.96176C16.8902 7.69328 16.3221 7.02314 16.2007 6.20858C16.7297 6.29892 17.2157 6.3998 17.6471 6.50039V7.96176ZM14.7089 6.00206C14.7644 7.72412 16.0089 9.15093 17.6471 9.4848V10.7249L14.9213 13.4506C14.3971 13.9748 13.5441 13.9748 13.02 13.4506L12.5 12.9307L11.9801 13.4506C11.4559 13.9748 10.6029 13.9748 10.0788 13.4506L7.35294 10.7249V9.4848C8.99113 9.15093 10.2356 7.72412 10.2911 6.00206C11.7757 5.84515 13.1771 5.84015 14.7089 6.00206ZM7.35294 7.96176V6.50039C7.78426 6.3998 8.27034 6.29892 8.79927 6.20858C8.67794 7.02309 8.1098 7.69328 7.35294 7.96176V7.96176ZM10.2664 1.8623C10.9753 1.62034 11.9778 1.47059 12.5 1.47059C13.0222 1.47059 14.0247 1.62034 14.7336 1.8623C16.1616 2.34961 17.205 3.53902 17.5355 4.96848C14.0882 4.22824 10.9129 4.22804 7.46446 4.96848C7.795 3.53902 8.83843 2.34966 10.2664 1.8623V1.8623ZM1.47059 21.9404C1.47059 20.5115 2.30892 19.2012 3.60642 18.6023L7.65794 16.7324C8.60824 17.8889 10.0719 18.9843 11.7647 19.6354V23.5294H1.47059V21.9404ZM23.5294 23.5294H13.2353V19.6355C14.9216 18.9868 16.388 17.8935 17.342 16.7324L21.3935 18.6024C22.691 19.2012 23.5294 20.5115 23.5294 21.9404V23.5294Z" fill="#6776ED"/>
</svg>
