<svg id="Capa_1" enable-background="new 0 0 510 510" height="512" viewBox="0 0 510 510" width="512" xmlns="http://www.w3.org/2000/svg"><g><g><path d="m168.311 45.737c-53.219-10.016-104.207 22.01-119.716 72.169-4.985 16.124-6.057 33.404-2.857 50.403-44.616 30.473-58.182 89.172-33.628 135.712 7.877 14.932 19.341 27.91 33.628 37.668-6.26 33.261 3.77 68.441 28.95 93.623 24.232 24.232 59.041 35.462 93.622 28.95 19.135 28.016 51.144 45.738 86.69 45.738l10-255-10-255c-34.283 0-66.84 16.675-86.689 45.737z" fill="#ffda2d"/><path d="m341.69 464.263c52.982 9.979 104.146-21.809 119.717-72.169 4.985-16.124 6.057-33.404 2.856-50.404 44.722-30.544 58.13-89.269 33.628-135.713-7.878-14.931-19.342-27.909-33.628-37.667 9.942-52.814-21.63-104.088-72.168-119.715-16.125-4.986-33.405-6.057-50.404-2.857-19.134-28.013-51.141-45.738-86.691-45.738v510c34.347 0 66.877-16.728 86.69-45.737z" fill="#fdb504"/><path d="m185.781 75.423-2.902 5.477c-1.216-.373 4.39 1.348-11.853-3.639-41.796-12.836-84.703 12.455-94.901 53.607-3.218 12.983-2.956 26.837 1.135 40.158.173.563-.259-.843 3.64 11.852-.112.06-10.852 5.751-10.955 5.806-38.572 20.438-51.127 68.653-29.205 105.034 6.906 11.46 16.89 21.073 29.205 27.599 2.189 1.16 10.822 5.734 10.955 5.805-.173.564.259-.843-3.64 11.853-12.837 41.803 12.457 84.702 53.607 94.9 24.574 6.09 42.874-2.355 46.084-2.954l5.926-1.82c1.16 2.189 5.734 10.822 5.805 10.955 13.046 24.614 38.443 39.944 66.318 39.944l10-225-10-225c-13.929 0-27.249 3.829-38.718 10.741-21.691 13.071-28.654 31.988-30.501 34.682z" fill="#fff7f4"/><path d="m321.316 440.055c2.03-3.831 3.774-7.124 5.805-10.955 1.217.374-4.391-1.348 11.853 3.64 41.803 12.835 84.7-12.455 94.901-53.607 3.218-12.983 2.955-26.837-1.136-40.158-.034-.112-3.593-11.699-3.64-11.853 2.189-1.16 10.821-5.734 10.955-5.805 24.619-13.047 39.946-38.443 39.946-66.317 0-27.86-15.315-53.265-39.945-66.316-1.124-.596 4.058 2.15-10.955-5.806.372-1.212-1.349 4.39 3.64-11.852 8.176-26.623 1.067-55.417-18.64-75.125-19.692-19.691-48.482-26.825-75.126-18.64-.1.031-11.701 3.593-11.853 3.639-2.03-3.831-3.775-7.124-5.805-10.955-13.044-24.615-38.44-39.945-66.316-39.945v450c27.858 0 53.264-15.314 66.316-39.945z" fill="#f0e6e6"/><path d="m240 210v60c-10.492 0-19.508 0-30 0 0-7.259 0-52.692 0-60-14.981 0-30.019 0-45 0-24.813 0-45 20.186-45 45s20.186 45 45 45h15v60c0 31.45 31.672 53.315 61.065 42.034 5.169-1.984 9.881-4.895 13.935-8.528l10-91.753-10-91.753c-5.246 0-9.754 0-15 0zm-60 60c-5.246 0-9.754 0-15 0-8.271 0-15-6.728-15-15 0-8.27 6.728-15 15-15h15v15zm60 90c0 8.27-6.727 15-15 15-8.271 0-15-6.728-15-15 0-7.259 0-52.692 0-60h30z" fill="#0a617d"/><path d="m330 360c0-10.128 0-139.871 0-150-10.492 0-19.508 0-30 0v150c0 8.272-6.728 15-15 15-8.271 0-15-6.728-15-15 0-10.128 0-139.871 0-150-5.246 0-9.754 0-15 0v183.505c17.811 15.962 44.888 15.217 61.805-1.7 8.148-8.148 13.195-19.398 13.195-31.805z" fill="#08475e"/><path d="m240 135c0 8.271-6.729 15-15 15-8.27 0-15-6.729-15-15-10.492 0-19.508 0-30 0 0 31.447 31.669 53.315 61.065 42.034 5.169-1.984 9.881-4.896 13.935-8.528l10-16.753-10-16.753c-5.246 0-9.754 0-15 0z" fill="#0a617d"/><path d="m330 135c-10.492 0-19.508 0-30 0 0 8.271-6.728 15-15 15-8.271 0-15-6.729-15-15-5.246 0-9.754 0-15 0v33.505c17.677 15.839 44.761 15.343 61.805-1.701 8.148-8.148 13.195-19.398 13.195-31.804z" fill="#08475e"/><path d="m240 75v30h15l10-15-10-15c-5.246 0-9.754 0-15 0z" fill="#0a617d"/><path d="m254.957 75v30h15c0-10.492 0-19.508 0-30-5.246 0-9.754 0-15 0z" fill="#08475e"/></g><path d="m360 210h30v186.885h-30z" fill="#08475e"/></g></svg>