<svg id="Capa_1" enable-background="new 0 0 504.5 504.5" height="88" viewBox="0 0 504.5 504.5" width="100" xmlns="http://www.w3.org/2000/svg"><g><g><path d="m253.022 49.952c-4.142 0-7.5-3.357-7.5-7.5v-34.952c0-4.143 3.358-7.5 7.5-7.5s7.5 3.357 7.5 7.5v34.952c0 4.143-3.357 7.5-7.5 7.5z" fill="#ffbd86"/></g><path d="m308.269 136.318-54.989 7.015-54.989-7.015 6.803-41.697 47.928-3.687 48.444 3.687z" fill="#fed2a4"/><path d="m301.466 94.621-11.853-3.687-12.316 3.687 6.803 41.697 13.15 5.015 11.019-5.015z" fill="#ffbd86"/><path d="m275.481 42.452h-44.402c-17.379 0-30.796 15.28-28.549 32.513l2.563 19.656h96.372l2.563-19.656c2.248-17.233-11.169-32.513-28.547-32.513z" fill="#c38f86"/><path d="m275.481 42.452h-24.169c17.379 0 30.796 15.28 28.548 32.513l-2.563 19.656h24.169l2.563-19.656c2.247-17.233-11.17-32.513-28.548-32.513z" fill="#b87d72"/><g><path d="m136.491 453.109c-2.558 0-5.051-1.309-6.453-3.667l-31.984-53.781c-13.285-22.339-17.414-48.596-11.624-73.934l36.402-158.802c3.579-15.666 17.303-26.607 33.373-26.607h11.184c0 3.107 1.225 14.848 1.225 14.848l-12.408.152c-9.028 0-16.739 6.147-18.75 14.949l-36.402 158.802c-4.927 21.564-1.414 43.912 9.894 62.924l31.984 53.781c2.117 3.561.947 8.163-2.613 10.28-1.203.716-2.524 1.055-3.828 1.055z" fill="#ab695d"/></g><g><path d="m370.068 453.109c2.558 0 5.051-1.309 6.453-3.667l31.984-53.781c13.285-22.339 17.414-48.596 11.624-73.934l-36.402-158.802c-3.579-15.666-17.303-26.607-33.373-26.607-4.142 0-11.184 0-11.184 0 0 3.107-1.225 14.848-1.225 14.848l12.408.152c9.028 0 16.739 6.147 18.75 14.949l36.402 158.802c4.927 21.564 1.414 43.912-9.894 62.924l-31.984 53.781c-2.117 3.561-.947 8.163 2.613 10.28 1.203.716 2.525 1.055 3.828 1.055z" fill="#ab695d"/></g><path d="m342.855 307.319c0 65.022-40.104 85.763-89.575 85.763s-89.575-20.741-89.575-85.763 40.104-149.703 89.575-149.703 89.575 84.681 89.575 149.703z" fill="#ffe177"/><path d="m253.28 157.615c-4.099 0-8.132.593-12.085 1.696 43.755 12.213 77.491 88.372 77.491 148.007s-33.736 82.018-77.491 85.319c3.953.298 7.986.444 12.085.444 49.471 0 89.575-20.74 89.575-85.763 0-65.021-40.104-149.703-89.575-149.703z" fill="#ffd15b"/><g><path d="m253.022 280.688c-4.142 0-7.5-3.357-7.5-7.5v-94.274c0-4.143 3.358-7.5 7.5-7.5s7.5 3.357 7.5 7.5v94.274c0 4.142-3.357 7.5-7.5 7.5z" fill="#f6a96c"/></g><path d="m339.171 136.318h-171.783c-4.821 0-8.316 4.595-7.027 9.241l4.331 15.618c2.906 10.48 12.447 17.735 23.323 17.735h130.529c10.876 0 20.416-7.255 23.323-17.735l4.331-15.618c1.289-4.645-2.205-9.241-7.027-9.241z" fill="#c38f86"/><path d="m346.2 145.56-4.33 15.62c-2.91 10.48-12.45 17.73-23.33 17.73h-21.29c10.88 0 20.42-7.25 23.32-17.73l4.34-15.62c1.28-4.65-2.21-9.24-7.03-9.24h21.29c4.82 0 8.32 4.59 7.03 9.24z" fill="#b87d72"/><path d="m327.415 403.014c-2.948 0-5.627-1.84-6.556-4.638-4.945-14.881-33.318-26.291-67.579-26.291-34.262 0-62.635 11.41-67.579 26.291-.93 2.798-3.608 4.638-6.556 4.638h-23.651c-10.498 0-19.009 8.51-19.009 19.009v23.586l118.538 7.501 115.053-7.501v-23.586c0-10.498-8.51-19.009-19.009-19.009z" fill="#aca6d6"/><path d="m327.42 403.01h-22.67c-2.95 0-5.63-1.84-6.56-4.63-4.38-13.21-27.22-23.68-56.24-25.86 3.69-.29 7.47-.43 11.33-.43 34.26 0 62.63 11.4 67.58 26.29.93 2.79 3.61 4.63 6.56 4.63z" fill="#978ecb"/><path d="m370.08 422.02v23.59l-10.8 7.499-11.87-7.499v-23.59c0-10.5-8.51-19.01-19.01-19.01h22.67c10.49 0 19.01 8.51 19.01 19.01z" fill="#978ecb"/><path d="m281.934 318.164c0 19.535-12.049 25.767-26.912 25.767s-26.912-6.231-26.912-25.767c0-19.535 12.049-44.977 26.912-44.977 14.864 0 26.912 25.442 26.912 44.977z" fill="#fe6c55"/><path d="m255.023 273.188c-4.347 0-8.45 2.187-12.085 5.756 8.792 8.632 14.827 25.399 14.827 39.221s-6.035 20.978-14.827 23.985c3.635 1.243 7.737 1.782 12.085 1.782 14.863 0 26.912-6.231 26.912-25.767-.001-19.536-12.049-44.977-26.912-44.977z" fill="#fd544d"/><g><path d="m293.438 351.499h-76.998c-4.142 0-7.5-3.357-7.5-7.5s3.358-7.5 7.5-7.5h76.998c4.142 0 7.5 3.357 7.5 7.5s-3.357 7.5-7.5 7.5z" fill="#f6a96c"/></g><g><g><path d="m79.832 181.103h-28.115c-4.142 0-7.5-3.357-7.5-7.5s3.358-7.5 7.5-7.5h28.115c4.142 0 7.5 3.357 7.5 7.5s-3.358 7.5-7.5 7.5z" fill="#ffe177"/></g><g><path d="m100.519 90.934c-1.919 0-3.839-.732-5.303-2.196l-9.94-9.94c-2.929-2.93-2.929-7.678 0-10.607 2.929-2.928 7.678-2.928 10.606 0l9.94 9.94c2.929 2.93 2.929 7.678 0 10.607-1.465 1.463-3.384 2.196-5.303 2.196z" fill="#ffe177"/></g></g><g><g><path d="m452.783 181.103h-28.116c-4.142 0-7.5-3.357-7.5-7.5s3.358-7.5 7.5-7.5h28.116c4.142 0 7.5 3.357 7.5 7.5s-3.358 7.5-7.5 7.5z" fill="#ffe177"/></g><g><path d="m403.981 90.934c-1.919 0-3.839-.732-5.303-2.196-2.929-2.93-2.929-7.678 0-10.607l9.94-9.94c2.929-2.928 7.678-2.928 10.606 0 2.929 2.93 2.929 7.678 0 10.607l-9.94 9.94c-1.464 1.463-3.383 2.196-5.303 2.196z" fill="#ffe177"/></g></g><path d="m390.47 504.5h-274.381c-7.931 0-14.128-6.849-13.336-14.741l3.218-32.085c.687-6.85 6.452-12.066 13.336-12.066h267.945c6.885 0 12.649 5.216 13.336 12.066l3.218 32.085c.792 7.892-5.404 14.741-13.336 14.741z" fill="#c38f86"/><path d="m403.807 489.759-3.218-32.085c-.687-6.85-6.452-12.066-13.336-12.066h-24.169c6.885 0 12.649 5.216 13.336 12.066l3.218 32.085c.791 7.892-5.405 14.741-13.336 14.741h24.169c7.931 0 14.127-6.849 13.336-14.741z" fill="#b87d72"/><g><path d="m271.407 480.144h-36.254c-4.142 0-7.5-3.357-7.5-7.5s3.358-7.5 7.5-7.5h36.254c4.142 0 7.5 3.357 7.5 7.5s-3.358 7.5-7.5 7.5z" fill="#ffe177"/></g></g></svg>