<svg id="Capa_1" enable-background="new 0 0 497 497" height="88" viewBox="0 0 497 497" width="100" xmlns="http://www.w3.org/2000/svg"><g><path d="m137.148 22.264 7.352 127.236-17.921 99.544-35.079 6.456-36.679-6.456 14.031-154.019c2.533-27.801 20.073-51.988 45.712-63.032z" fill="#ffe5c2"/><path d="m116.137 31.315-10.147 217.729h20.589l17.921-99.544-7.352-127.236z" fill="#fed2a4"/><path d="m126.579 249.044 8.921 20.742-10.849 20.742h-61.317c-6.624 0-11.816-5.693-11.207-12.289l2.694-29.194h71.758z" fill="#6c7fd8"/><path d="m105.99 249.044-1.929 41.484h20.59l10.849-20.742-8.921-20.742z" fill="#5a74d1"/><path d="m442.179 249.044-34.507 6.456-37.251-6.456-16.421-118.542 5.851-108.237 22.585 9.729c25.638 11.044 43.179 35.231 45.712 63.032z" fill="#ffe5c2"/><path d="m428.148 95.025c-2.533-27.801-20.073-51.988-45.712-63.032l-22.585-9.729-5.851 5.462 6.273 3.59 1.573.678c25.638 11.044 43.179 35.231 45.712 63.032l14.031 154.019 11.911 6.455 8.679-6.456z" fill="#fed2a4"/><path d="m370.421 249.044-5.921 20.742 7.849 20.742h61.317c6.624 0 11.816-5.693 11.207-12.289l-2.694-29.194h-71.758z" fill="#6c7fd8"/><path d="m444.873 278.238-2.694-29.194h-20.59l2.694 29.194c.609 6.596-4.583 12.289-11.207 12.289h20.59c6.624.001 11.816-5.693 11.207-12.289z" fill="#5a74d1"/><path d="m119.008 411.579v58.214c0 15.026 12.181 27.207 27.207 27.207h204.569c15.026 0 27.207-12.181 27.207-27.207v-58.214z" fill="#6c7fd8"/><path d="m357.401 411.579v58.214c0 15.026-12.181 27.207-27.207 27.207h20.59c15.026 0 27.207-12.181 27.207-27.207v-58.214z" fill="#5a74d1"/><path d="m137.148 22.265 42.992-17.234c4.067-1.633 8.268-2.874 12.545-3.714 4.44-.878 55.815 10.183 55.815 10.183s51.375-11.061 55.814-10.182c4.277.84 8.478 2.081 12.545 3.714l42.992 17.233 10.569 226.78 7.571 162.535-47.097 29.139c-12.24 7.581-26.36 11.6-40.767 11.6h-83.253c-14.407 0-28.528-4.019-40.767-11.6l-47.097-29.139 5.643-121.052 1.929-41.483z" fill="#aca6d6"/><path d="m377.99 411.58-21.26 13.16-6.9-175.7-9.56-234.62 19.58 7.84 10.57 226.78z" fill="#978ecb"/><g><path d="m248.5 214.868c-4.142 0-7.5-3.357-7.5-7.5v-48.031c0-4.143 3.358-7.5 7.5-7.5s7.5 3.357 7.5 7.5v48.031c0 4.143-3.358 7.5-7.5 7.5z" fill="#978ecb"/></g><path d="m264.139 55.451v95.259c0 4.764-3.862 8.626-8.626 8.626h-14.025c-4.764 0-8.626-3.862-8.626-8.626v-95.259l15.638-5.951z" fill="#6c7fd8"/><path d="m264.139 55.451c22.541-2.11 40.175-21.081 40.175-44.176v-9.957c-4.44-.879-8.975-1.318-13.519-1.318h-84.59c-4.545 0-9.08.439-13.519 1.318v9.958c0 23.095 17.634 42.066 40.175 44.176h31.278z" fill="#c38f86"/><path d="m290.795 0h-7.071v11.275c0 23.095-17.634 42.066-40.175 44.176h20.59c22.541-2.11 40.175-21.081 40.175-44.176v-9.958c-4.44-.878-8.975-1.317-13.519-1.317z" fill="#b87d72"/><g><path d="m162.244 361.857c-1.919 0-3.839-.732-5.303-2.196-2.929-2.93-2.929-7.678 0-10.607l37.261-37.261c2.929-2.928 7.678-2.928 10.606 0 2.929 2.93 2.929 7.678 0 10.607l-37.261 37.261c-1.464 1.464-3.384 2.196-5.303 2.196z" fill="#978ecb"/></g><g><path d="m334.816 361.857c-1.919 0-3.839-.732-5.303-2.196l-37.261-37.261c-2.929-2.93-2.929-7.678 0-10.607 2.929-2.928 7.678-2.928 10.606 0l37.261 37.261c2.929 2.93 2.929 7.678 0 10.607-1.464 1.464-3.383 2.196-5.303 2.196z" fill="#978ecb"/></g><g fill="#6c7fd8"><g><circle cx="163.955" cy="44.44" r="7.508"/><circle cx="190.04" cy="74.935" r="7.508"/></g><g><circle cx="331.437" cy="44.44" r="7.508"/><circle cx="305.352" cy="74.935" r="7.508"/></g></g></g></svg>