<svg id="Capa_1" enable-background="new 0 0 504.311 504.311" height="88" viewBox="0 0 504.311 504.311" width="100" xmlns="http://www.w3.org/2000/svg"><g><path d="m74.052 236.084v16.708c-.006-11.623-9.43-21.04-21.055-21.04-11.628 0-21.055 9.427-21.055 21.055v81.159c0 15.762 4.869 31.14 13.942 44.029l16.582 23.557c7.539 10.71 11.586 23.489 11.586 36.587v9.816 30.447c0 5.919 4.798 10.718 10.718 10.718h121.628v-51.352c0-12.982 3.109-25.774 9.068-37.307l6.929-13.411c5.959-11.533 9.068-24.326 9.068-37.307v-113.659z" fill="#ffe5c2"/><path d="m210.773 236.084v113.657c0 12.982-3.109 25.774-9.068 37.307l-6.929 13.411c-5.959 11.533-9.068 24.326-9.068 37.307v51.352h20.69v-51.352c0-12.982 3.109-25.774 9.068-37.307l6.929-13.411c5.959-11.533 9.068-24.326 9.068-37.307v-113.657z" fill="#fed2a4"/><path d="m192.11 236.084h39.353v-77.062c0-10.867-8.809-19.676-19.676-19.676-10.867 0-19.676 8.809-19.676 19.676v77.062z" fill="#ffe5c2"/><path d="m152.758 236.084h39.353v-93.089c0-10.867-8.809-19.676-19.676-19.676-10.867 0-19.676 8.809-19.676 19.676v93.089z" fill="#ffe5c2"/><path d="m211.787 139.345c-3.8 0-7.337 1.096-10.345 2.962 5.594 3.47 9.331 9.648 9.331 16.715v77.062h20.69v-77.062c0-10.868-8.809-19.677-19.676-19.677z" fill="#fed2a4"/><path d="m172.434 123.318c-3.591 0-6.947.978-9.845 2.658 5.872 3.405 9.831 9.743 9.831 17.019v118.969c0 7.41 6.007 13.418 13.418 13.418 3.464 0 6.272-2.808 6.272-6.272v-126.115c0-10.867-8.809-19.677-19.676-19.677z" fill="#fed2a4"/><path d="m113.405 236.084h39.353v-93.089c0-10.867-8.809-19.676-19.676-19.676-10.867 0-19.676 8.809-19.676 19.676v93.089z" fill="#ffe5c2"/><path d="m133.081 123.318c-3.591 0-6.947.978-9.845 2.658 5.872 3.405 9.831 9.743 9.831 17.019v118.969c0 7.41 6.007 13.418 13.418 13.418 3.464 0 6.272-2.808 6.272-6.272v-126.115c.001-10.867-8.809-19.677-19.676-19.677z" fill="#fed2a4"/><path d="m74.052 236.084h39.353v-80.944c0-10.867-8.809-19.676-19.676-19.676-10.867 0-19.676 8.809-19.676 19.676v80.944z" fill="#ffe5c2"/><path d="m93.728 135.464c-3.591 0-6.947.978-9.845 2.658 5.872 3.405 9.831 9.743 9.831 17.018v106.824c0 7.41 6.007 13.418 13.418 13.418 3.464 0 6.272-2.808 6.272-6.272v-113.97c.001-10.867-8.809-19.676-19.676-19.676z" fill="#fed2a4"/><path d="m450.546 231.766c-11.41.406-20.288 10.127-20.287 21.544.001 22.74.001 55.316.001 55.316l-.004.003v-72.544h-157.41v113.66c0 12.98 3.11 25.77 9.07 37.3l6.93 13.41c5.96 11.54 9.07 24.33 9.07 37.31v51.351l121.622.003c5.919 0 10.718-4.798 10.718-10.718v-30.446-.01l.004.009v-9.816c0-13.098 4.046-25.876 11.586-36.587l16.582-23.557c9.073-12.889 13.942-28.267 13.942-44.029v-81.159c-.001-11.882-9.846-21.467-21.824-21.04z" fill="#ffe5c2"/><path d="m430.256 308.625s0-33.06 0-55.82v-16.72" fill="#ffe5c2"/><path d="m451.314 231.752c-3.764 0-7.289.999-10.346 2.728 6.39 3.615 10.711 10.461 10.711 18.327v81.159c0 15.762-4.87 31.14-13.942 44.029l-16.582 23.557c-7.539 10.71-11.586 23.489-11.586 36.587v38.451h20.69v-38.451c0-13.098 4.046-25.876 11.586-36.587l16.582-23.557c9.073-12.889 13.942-28.267 13.942-44.029v-81.159c0-11.628-9.426-21.055-21.055-21.055z" fill="#fed2a4"/><path d="m272.848 236.084v-77.062c0-10.867 8.809-19.676 19.676-19.676 10.867 0 19.676 8.809 19.676 19.676v77.062" fill="#ffe5c2"/><path d="m292.524 139.345c-3.591 0-6.947.978-9.845 2.658 5.872 3.405 9.831 9.743 9.831 17.018v101.867c0 6.333 5.134 11.467 11.467 11.467h1.951c3.464 0 6.272-2.808 6.272-6.272v-107.062c.001-10.867-8.809-19.676-19.676-19.676z" fill="#fed2a4"/><path d="m312.201 266.083v-123.088c0-10.867 8.809-19.676 19.676-19.676 10.867 0 19.676 8.809 19.676 19.676v126.115" fill="#ffe5c2"/><path d="m331.877 123.318c-3.591 0-6.947.978-9.845 2.658 5.872 3.405 9.831 9.743 9.831 17.019v120.92c0 6.333 5.134 11.467 11.467 11.467h1.951c3.464 0 6.272-2.808 6.272-6.272v-126.115c0-10.867-8.809-19.677-19.676-19.677z" fill="#fed2a4"/><path d="m351.553 236.084v-93.089c0-10.867 8.809-19.676 19.676-19.676 10.867 0 19.676 8.809 19.676 19.676v93.089" fill="#ffe5c2"/><path d="m371.23 123.318c-3.591 0-6.947.978-9.845 2.658 5.872 3.405 9.831 9.743 9.831 17.019v123.255c0 5.043 4.089 9.132 9.132 9.132h4.286c3.464 0 6.272-2.808 6.272-6.272v-126.115c0-10.867-8.809-19.677-19.676-19.677z" fill="#fed2a4"/><path d="m390.906 269.11v-113.97c0-10.867 8.809-19.676 19.676-19.676 10.867 0 19.676 8.809 19.676 19.676v80.943" fill="#ffe5c2"/><path d="m410.583 135.464c-3.8 0-7.337 1.096-10.345 2.962 5.594 3.47 9.331 9.648 9.331 16.715v101.605l20.69-20.661v-80.945c0-10.867-8.809-19.676-19.676-19.676z" fill="#fed2a4"/><path d="m69.321 448.867h143.671c5.117 0 9.266 4.148 9.266 9.266v36.913c0 5.117-4.148 9.266-9.266 9.266h-143.671c-5.117 0-9.266-4.148-9.266-9.266v-36.913c.001-5.118 4.149-9.266 9.266-9.266z" fill="#aca6d6"/><path d="m212.992 448.867h-22.227c5.117 0 9.266 4.148 9.266 9.266v36.913c0 5.117-4.148 9.266-9.266 9.266h22.227c5.117 0 9.266-4.148 9.266-9.266v-36.913c0-5.118-4.148-9.266-9.266-9.266z" fill="#978ecb"/><path d="m291.319 448.867h143.671c5.117 0 9.266 4.148 9.266 9.266v36.913c0 5.117-4.148 9.266-9.266 9.266h-143.671c-5.117 0-9.266-4.148-9.266-9.266v-36.913c0-5.118 4.148-9.266 9.266-9.266z" fill="#aca6d6"/><path d="m434.99 448.867h-21.69c5.117 0 9.266 4.148 9.266 9.266v36.913c0 5.117-4.148 9.266-9.266 9.266h21.69c5.117 0 9.266-4.148 9.266-9.266v-36.913c-.001-5.118-4.149-9.266-9.266-9.266z" fill="#978ecb"/><path d="m409.565 236.085v64.968c0 4.301-1.743 8.419-4.831 11.412l-24.529 23.78c-8.47 8.21-14.68 18.55-17.96 29.89l-2.56 8.89c-1.15 3.98 1.14 8.13 5.12 9.28s8.14-1.14 9.29-5.12l2.56-8.89c2.55-8.83 7.39-16.88 13.99-23.28l34.777-33.706c3.089-2.994 4.833-7.112 4.833-11.414v-65.81z" fill="#fed2a4"/><path d="m123.932 375.025-2.56-8.89c-3.28-11.34-9.49-21.68-17.96-29.89l-24.529-23.78c-3.088-2.994-4.831-7.109-4.831-11.41 0-10.987 0-31.783.001-47.74 0-11.301-8.692-20.967-19.979-21.536-4.167-.21-8.074.808-11.421 2.701 6.39 3.614 10.71 10.458 10.71 18.324 0 16.437-.001 38.248-.001 49.097 0 4.302 1.744 8.414 4.833 11.408l34.777 33.706c6.6 6.4 11.44 14.45 13.99 23.28l2.56 8.89c1.15 3.98 5.31 6.27 9.29 5.12s6.27-5.3 5.12-9.28z" fill="#fed2a4"/><path d="m259.431 15.452h-7.952v-7.952c0-4.142-3.358-7.5-7.5-7.5s-7.5 3.358-7.5 7.5v7.952h-7.953c-4.142 0-7.5 3.358-7.5 7.5s3.358 7.5 7.5 7.5h7.953v7.953c0 4.142 3.358 7.5 7.5 7.5s7.5-3.358 7.5-7.5v-7.953h7.952c4.142 0 7.5-3.358 7.5-7.5s-3.358-7.5-7.5-7.5z" fill="#ffe177"/><circle cx="210.539" cy="76.634" fill="#ffd15b" r="7.508"/><circle cx="293.772" cy="54.913" fill="#ffd15b" r="7.508"/><g fill="#6c7fd8"><circle cx="96.389" cy="476.252" r="7.508"/><circle cx="410.583" cy="476.252" r="7.508"/></g></g></svg>