<svg id="Capa_1" enable-background="new 0 0 494.989 494.989" height="88" viewBox="0 0 494.989 494.989" width="100" xmlns="http://www.w3.org/2000/svg"><g><g><path d="m170.448 68.141c-4.142 0-7.5-3.939-7.5-8.799v-30.492c0-4.859 3.358-8.799 7.5-8.799s7.5 3.939 7.5 8.799v30.492c0 4.86-3.358 8.799-7.5 8.799z" fill="#8b8089"/></g><path d="m375.406 417.471-141.285-88.481c-8.721-5.462-12.083-16.515-7.88-25.907 4.48-10.012 16.013-14.766 26.248-10.82l86.698 33.426c3.705 1.428 7.607 2.277 11.57 2.516l45.841 2.769c19.092 1.153 36.578 11.072 47.364 26.868 4.665 6.832 11.328 11.892 18.926 14.604 1.202.429 5.613 23.758 5.613 23.758z" fill="#ffe5c2"/><path d="m468.497 396.198-20.35 4.66c-3.76-10.51-7.71-21.2-8.31-21.41-1.37-.49-2.7-1.27-4-2.28-2.77-2.15-5.37-5.28-7.74-8.58-2.72-3.77-5.15-7.76-7.19-10.75-10.79-15.79-28.27-25.71-47.36-26.86l-45.84-2.77c-3.97-.24-7.87-1.09-11.57-2.52l-82.05-31.63c5.34-3.35 12.11-4.22 18.4-1.8l86.7 33.43c3.7 1.43 7.61 2.28 11.57 2.52l45.84 2.77c9.54.58 18.69 3.34 26.8 7.94 8.1 4.6 15.18 11.02 20.57 18.92 4.59 6.73 11.11 11.74 18.57 14.48.11.05.23.09.35.13.82.29 3.15 11.33 4.53 18.25.64 3.18 1.08 5.5 1.08 5.5z" fill="#fed2a4"/><path d="m231.275 373.548-143.056-76.507c-10.722-5.639-23.974-2.172-30.561 7.995-7.341 11.331-3.609 26.506 8.151 33.139l115.117 64.926z" fill="#fed2a4"/><path d="m494.989 394.963v85.768c0 9.88-9.99 16.627-19.155 12.938l-2.525-1.016c-14.44-5.812-29.804-8.991-45.365-9.384l-123.283-3.116c-19.237-.486-38.14-5.144-55.401-13.65l-215.542-106.224c-10.652-4.93-15.528-17.377-11.059-28.23 4.283-10.402 15.748-15.872 26.528-12.655l112.194 38.857c18.58 6.435 38.103 9.726 57.765 9.739l188.377.118 36.658.853c7.312.17 14.529 1.689 21.288 4.481l20.895 8.63c5.22 2.156 8.625 7.245 8.625 12.891z" fill="#ffe5c2"/><path d="m161.377 358.248c14.32 4.96 29.21 8.06 44.28 9.21l-9.56.53c-19.67-.01-39.19-3.3-57.77-9.74l-106.35-36.83c5.06-2.91 11.24-3.81 17.21-2.02z" fill="#ffe5c2"/><path d="m494.987 394.958v85.77c0 9.88-9.99 16.63-19.15 12.94l-2.53-1.01c-1.8-.73-3.63-1.42-5.46-2.06 2.49-2.48 4.09-5.92 4.09-9.87v-79.77c0-3.97-1.69-7.67-4.52-10.26-1.18-1.1-2.57-1.99-4.11-2.63l-20.89-8.63c-2.15-.89-4.35-1.65-6.58-2.27-2.77-2.15-5.37-5.28-7.74-8.58l16.09.37c6.26.15 12.45 1.28 18.35 3.36.98.34 1.96.72 2.93 1.12l20.9 8.63c5.22 2.16 8.62 7.25 8.62 12.89z" fill="#fed2a4"/><path d="m40.91 57.091h88.586v71.593h-88.586z" fill="#c38f86" transform="matrix(-1 0 0 -1 170.405 185.775)"/><g><path d="m80.123 100.388h-39.214c-4.142 0-7.5-3.358-7.5-7.5s3.358-7.5 7.5-7.5h39.214c4.142 0 7.5 3.358 7.5 7.5s-3.358 7.5-7.5 7.5z" fill="#b87d72"/></g><path d="m199.536 57.091h-70.04v71.593h58.347c6.458 0 11.694 5.235 11.694 11.694v26.76h62.735v-38.453-22.338c0-27.203-22.052-49.255-49.255-49.255h-13.481z" fill="#c38f86"/><path d="m213.017 57.091h-13.481-9.574c27.203 0 49.255 22.052 49.255 49.255v22.338 38.453h23.055v-38.453-22.338c-.001-27.203-22.053-49.255-49.255-49.255z" fill="#b87d72"/><path d="m195.998 31.101h-51.1c-8.506 0-15.402-6.896-15.402-15.402 0-8.506 6.896-15.402 15.402-15.402h51.1c8.506 0 15.402 6.896 15.402 15.402 0 8.506-6.896 15.402-15.402 15.402z" fill="#fe6c55"/><path d="m195.998.296h-23.055c8.506 0 15.402 6.896 15.402 15.402 0 8.506-6.896 15.402-15.402 15.402h23.055c8.506 0 15.402-6.896 15.402-15.402 0-8.506-6.896-15.402-15.402-15.402z" fill="#fd544d"/><path d="m253.644 238.075c0 12.269-9.946 22.215-22.215 22.215s-22.215-9.946-22.215-22.215 15.222-43.968 22.215-43.968c7.406.001 22.215 31.7 22.215 43.968z" fill="#6c7fd8"/><path d="m231.43 194.108c-2.58 0-6.281 4.322-9.924 10.386 6.212 10.369 12.109 25.84 12.109 33.582 0 8.664-4.964 16.165-12.2 19.827 3.01 1.523 6.411 2.387 10.015 2.387 12.269 0 22.215-9.946 22.215-22.215s-14.81-43.967-22.215-43.967z" fill="#5a74d1"/><g><path d="m283 174.637h-103.141c-4.142 0-7.5-3.358-7.5-7.5s3.358-7.5 7.5-7.5h103.141c4.142 0 7.5 3.358 7.5 7.5s-3.358 7.5-7.5 7.5z" fill="#b87d72"/></g><path d="m29.837 148.838h-18.764c-6.116 0-11.073-4.957-11.073-11.073v-89.29c0-6.115 4.957-11.073 11.073-11.073h18.764c6.115 0 11.073 4.957 11.073 11.073v89.291c0 6.115-4.958 11.072-11.073 11.072z" fill="#8b8089"/><path d="m29.837 37.402h-18.764c-.387 0-.769.021-1.145.059 5.577.573 9.927 5.285 9.927 11.013v89.291c0 5.728-4.35 10.44-9.927 11.013.377.039.758.059 1.145.059h18.764c6.115 0 11.073-4.957 11.073-11.073v-89.289c0-6.115-4.958-11.073-11.073-11.073z" fill="#7b7179"/></g></svg>