<svg id="Capa_1" enable-background="new 0 0 510 510" height="512" viewBox="0 0 510 510" width="512" xmlns="http://www.w3.org/2000/svg"><g><g><path d="m135 165c-33.1 0-60 26.9-60 60v150l30 10 30-10 10-105z" fill="#83d947"/><path d="m45 375v60l45 10 45-10 10-30-10-30c-9 0-80.6 0-90 0z" fill="#0a617d"/><path d="m75 105c0 33.1 26.9 60 60 60l10-60-10-60c-33.1 0-60 26.9-60 60z" fill="#ffccbd"/><path d="m315 375c0-33.1-26.9-60-60-60-15 0-30 0-45 0-8.3 0-15-6.7-15-15 0-20.2 0-63.2 0-75 0-33.1-26.9-60-60-60v210l90 10c28.6-3.2 61.4-6.8 90-10z" fill="#32bea6"/><path d="m135 375v60l60 10 60-10c33.1 0 60-26.9 60-60-10 0-170 0-180 0z" fill="#08475e"/><path d="m135 45v120c33.1 0 60-26.9 60-60s-26.9-60-60-60z" fill="#ffbda9"/><path d="m135 465c-16.3 0-118.6 0-135 0 0-10.5 0-19.5 0-30h135l10 15z" fill="#9d6b5d"/></g><path d="m135 435h375v30h-375z" fill="#895050"/></g></svg>