<svg id="Capa_1" enable-background="new 0 0 510 510" height="512" viewBox="0 0 510 510" width="512" xmlns="http://www.w3.org/2000/svg"><g><path d="m300 510c-4.655 0-160.348 0-165 0l-10-255 10-255h165l10 255z" fill="#83d947"/><path d="m263.787 105c-13.565 0-25.222 0-38.787 0v38.787c-4.219 4.219-32.019 32.019-36.213 36.213 4.219 4.22 32.02 32.02 36.213 36.213v38.787h38.787l36.213 36.213 10-111.213-10-111.213c-4.219 4.219-32.019 32.019-36.213 36.213z" fill="#9d6b5d"/><path d="m465 510c-4.655 0-160.348 0-165 0 0-14.385 0-495.615 0-510h165z" fill="#32bea6"/><path d="m375 143.787c0-13.565 0-25.221 0-38.787-13.565 0-25.222 0-38.787 0-4.219-4.22-32.02-32.021-36.213-36.213v222.426c10.456-10.455 25.726-25.726 36.213-36.213h38.787c0-13.565 0-25.221 0-38.787 4.219-4.219 32.019-32.019 36.213-36.213-4.219-4.22-32.02-32.02-36.213-36.213z" fill="#895050"/><path d="m300 360c-14.518 0-105.386 0-120 0 0-10.492 0-19.508 0-30h120l10 15z" fill="#fff7f4"/><path d="m300 435c-10.889 0-79.04 0-90 0 0-10.492 0-19.508 0-30h90l10 15z" fill="#0a617d"/><path d="m135 510c-10.889 0-79.04 0-90 0 0-14.385 0-495.615 0-510h90z" fill="#0a617d"/><path d="m276.213 135c-7.419 0-13.794 0-21.213 0v21.213c-1.727 1.727 7.15-7.15-23.787 23.787l23.787 23.787v21.213h21.213c2.429 2.429 21.402 21.401 23.787 23.787l10-68.787-10-68.787c-1.727 1.727 7.15-7.15-23.787 23.787z" fill="#ffda2d"/><path d="m420 360c-14.518 0-105.386 0-120 0 0-10.492 0-19.508 0-30h120z" fill="#f0e6e6"/><path d="m390 435c-10.889 0-79.04 0-90 0 0-10.492 0-19.508 0-30h90z" fill="#08475e"/><path d="m345 156.213c0-7.419 0-13.794 0-21.213-7.419 0-13.794 0-21.213 0-1.727-1.727 7.15 7.15-23.787-23.787v137.573c2.429-2.429 21.402-21.402 23.787-23.787h21.213c0-7.419 0-13.794 0-21.213 1.727-1.727-7.15 7.15 23.787-23.787-1.727-1.726 7.151 7.151-23.787-23.786z" fill="#fdb504"/></g></svg>