<svg id="Capa_1" enable-background="new 0 0 510 510" height="46" viewBox="0 0 510 510" width="46" xmlns="http://www.w3.org/2000/svg"><g><path d="m90 165v38.787l90 231.213 37.5 10 37.5-10 10-135-10-135-82.5-10z" fill="#fff7f4"/><path d="m420 203.787c0-13.565 0-25.222 0-38.787l-82.5-10-82.5 10v270l37.5 10 37.5-10z" fill="#f0e6e6"/><path d="m240 0v30l7.5 10 7.5-10 10-15-10-15c-5.246 0-9.754 0-15 0z" fill="#fe4a4a"/><path d="m270 0c-5.246 0-9.754 0-15 0v30l7.5 10 7.5-10c0-10.492 0-19.508 0-30z" fill="#e80b6a"/><path d="m195 30v15c0 24.812-20.186 45-45 45l52.5 10 52.5-10 10-30-10-30c-7.259 0-52.693 0-60 0z" fill="#ffda2d"/><path d="m315 45c0-5.246 0-9.754 0-15-7.259 0-52.693 0-60 0v60l52.5 10 52.5-10c-24.811 0-45-20.187-45-45z" fill="#fdb504"/><path d="m105 90v15c0 24.849-20.255 30-45 30v30h195l10-37.5-10-37.5c-10.128 0-139.871 0-150 0z" fill="#fdb504"/><path d="m450 135c-24.755 0-45-5.155-45-30 0-5.246 0-9.754 0-15-10.128 0-139.871 0-150 0v75h195c0-10.492 0-19.508 0-30z" fill="#f77e01"/><path d="m240 387.427v47.573l7.5 10 7.5-10 10-24-10-21-7.5-15z" fill="#ffccbd"/><path d="m262.5 375-7.5 15v45l7.5 10 7.5-10c0-9.933 0-37.488 0-47.573z" fill="#ffbda9"/><path d="m330 435 45 10 45-10c0-28.105 0-203.052 0-231.213-10.94 10.939-79.031 79.031-90 90z" fill="#d2cbd7"/><path d="m180 435-45.02 10-44.98-10v-231.213l90 90z" fill="#f0e6e6"/><path d="m216.109 322.277c-5.295 11.995-6.109 18.53-6.109 22.723 0 24.811 20.186 45 45 45l10-65.696-10-65.696c-3.84 5.942-27.205 37.209-38.891 63.669z" fill="#ffda2d"/><path d="m300 345c0-23.093-31.948-67.488-45-86.393v131.393c24.811 0 45-20.186 45-45z" fill="#fdb504"/><path d="m60 435v30c24.753 0 45 5.154 45 30v15h150l10-37.5-10-37.5c-10.822 0-184.178 0-195 0z" fill="#fdb504"/><path d="m405 495c0-24.84 20.234-30 45-30 0-10.492 0-19.508 0-30-10.822 0-184.178 0-195 0v75h150c0-5.246 0-9.754 0-15z" fill="#f77e01"/></g></svg>