<svg id="Capa_1" enable-background="new 0 0 510 510" height="512" viewBox="0 0 510 510" width="512" xmlns="http://www.w3.org/2000/svg"><g><path d="m126.825 54.702c-22.897-14.57-53.094-8.616-68.746 13.557-8.06 11.418-17.267 24.462-25.327 35.88l111.125 79.648 111.123 59.649 10-53.584-10-53.584c-15.564-9.904-112.576-71.64-128.175-81.566z" fill="#ffda2d"/><path d="m451.922 68.259c-15.651-22.171-45.848-28.129-68.746-13.557-15.085 9.599-113.024 71.924-128.176 81.566v107.168l111.125-59.648 111.124-79.648-12.664-17.941z" fill="#fdb504"/><path d="m255 368.083c8.277 5.252 141.668 89.891 150 95.177h105c0-7.259 0-52.693 0-60-5.155-3.231-177.459-111.225-182.599-114.446l-47.734 18.186z" fill="#624a4f"/><path d="m255 243.436-255-159.824v75l182.599 130.202 40.901-11.814z" fill="#895050"/><path d="m0 403.26v60h105c8.277-5.252 141.669-89.891 150-95.177l10-62.323-10-62.324c-14.136 8.86-240.833 150.945-255 159.824z" fill="#9d6b5d"/><path d="m285 319.048c12.469-8.891 212.503-151.525 225-160.436 0-20.194 0-63.236 0-75-14.167 8.879-240.833 150.945-255 159.824v124.647c10.491-6.657 19.509-12.379 30-19.035 0-10.492 0-19.508 0-30z" fill="#895050"/></g></svg>